<svg width="1247" height="1108" viewBox="0 0 1247 1108" fill="none" xmlns="http://www.w3.org/2000/svg">
<path d="M136.995 721.181C15.2875 614.948 28.0681 424.071 83.9317 327.724C201.229 125.423 974.468 56.0146 1008.34 72.2761C1204.77 166.569 1062.34 398.871 1099.57 528.309C1128.18 627.744 1005.55 763.183 869.635 754.611C733.719 746.039 783.989 996.344 642.488 1035.78C500.987 1075.21 195.643 1022.06 221.709 934.625C247.775 847.19 226.364 799.186 136.995 721.181Z" fill="#7AA874" fill-opacity="0.7"/>
<path d="M118.119 603.823C-5.67286 471.833 23.2981 362.999 141.389 270.418C510.905 -19.2759 933.474 -134.125 1224.81 220.707C1324.99 342.726 1050.61 516.81 1101.01 642.392C1180.13 839.521 984.666 878.946 848.774 870.376C712.881 861.805 754.766 1062.36 613.289 1101.79C471.812 1141.21 184.247 983.5 158.142 896.088C127.427 793.238 255.109 749.885 118.119 603.823Z" fill="#7AA874" fill-opacity="0.7"/>
<path d="M113.378 652.254C-50.5519 619.259 -24.472 423.351 113.378 314.568C422.609 70.54 1175.2 133.265 1203.14 157.324C1231.08 181.384 1096.96 474.389 1134.21 604.136C1162.83 703.809 1005.68 763.957 869.69 755.365C733.702 746.772 783.999 997.674 642.423 1037.2C500.848 1076.73 165.537 975.333 191.617 887.69C217.697 800.046 318.29 693.498 113.378 652.254Z" fill="#7AA874" fill-opacity="0.7"/>
</svg>
