<svg width="1988" height="1227" viewBox="0 0 1988 1227" fill="none" xmlns="http://www.w3.org/2000/svg">
<g id="Leaf2">
<path id="Leaf32" d="M1214.81 1051.38C1720.14 913.977 1512.49 1013.05 1939.24 745.393C2039 682.825 2019.42 180.563 1554.19 4H995.714C858.66 15.1423 853.125 226.13 388.76 317.699C80.1553 378.554 -6.55236 727.394 117.449 844.817C378.163 1091.7 374.775 910.814 614.387 1126.8C872.711 1359.66 950.03 1123.38 1214.81 1051.38Z" fill="#3D8361" fill-opacity="0.8"/>
<path id="Leaf2_2" d="M1017.75 1030.15C1522.84 892.874 1980.4 1157.74 1835.96 743.283C1654.79 223.459 1256.32 459.842 1056.89 0L290.872 69.3617C153.883 80.4938 -25.0417 227.78 2.91533 348.521C34.8341 486.371 147.36 495.642 123.13 795.353C98.9008 1095.06 371.947 1329.86 573.237 1170.59C774.527 1011.31 753.094 1102.08 1017.75 1030.15Z" fill="#3D8361" fill-opacity="0.8"/>
</g>
</svg>
