<svg width="2168" height="1306" viewBox="0 0 2168 1306" fill="none" xmlns="http://www.w3.org/2000/svg">
<g id="Leaf3">
<path id="Leaf33" d="M278.28 1198.22C143.135 1021.58 258.707 778.064 49 572.275L63.9124 200.833L683.714 64.6632L1429.34 20.0757C1555.47 35.5098 2210.38 -124.834 2103.2 262.735C1976.54 720.715 1863.67 916.971 1461.96 1021.58C1388.01 1040.84 1205.65 1119.33 1042.55 1198.22C720.513 1353.97 378.623 1329.36 278.28 1198.22Z" fill="#1C6758"/>
<path id="Leaf23" d="M406.687 1303.33C106.832 1277.09 -44.4578 875.887 11.4694 613.768L88.8352 104.09L682.594 65.5432L1428.29 21C1554.44 36.4188 2332.02 28.9856 2136.7 385.912C1893.42 830.487 2200.08 935.849 1706.99 1122.59C1305.15 1274.77 1197.31 1101.36 1019.09 1062.63C743.182 1002.66 602.432 1320.46 406.687 1303.33Z" fill="#1C6758"/>
</g>
</svg>
